<?xml version="1.0" encoding="UTF-8"?>
<svg width="25px" height="25px" viewBox="0 0 25 25" version="1.1" xmlns="http://www.w3.org/2000/svg" xmlns:xlink="http://www.w3.org/1999/xlink">
    <title>activity-icon</title>
    <defs>
        <path d="M12.5,0 C19.4035594,0 25,5.59644063 25,12.5 C25,19.4035594 19.4035594,25 12.5,25 C5.59644063,25 0,19.4035594 0,12.5 C0,5.59644063 5.59644063,0 12.5,0 Z" id="path-1"></path>
    </defs>
    <g id="activity-icon" stroke="none" fill="none" xlink:href="#path-1" fill-rule="evenodd">
        <circle id="Oval" fill="#ECE6F5" cx="12.5" cy="12.5" r="12.5"></circle>
        <g id="Flag_fill" transform="translate(6, 5)" stroke-width="1">
            <g id="Group" transform="translate(4, 3.4054)">
                <path d="M7.05133333,2.2783929 L0.43874,0.0741995655 C0.238533333,0.00746623215 0.138426667,-0.0259071012 0.0692133333,0.0239862321 C0,0.0738728988 0,0.179392899 0,0.390426232 L0,5.26128623 L7.05133333,2.91084623 C7.44353333,2.7801129 7.6396,2.71474623 7.6396,2.59461957 C7.6396,2.4744929 7.44353333,2.40912623 7.05133333,2.2783929 Z" id="Path" fill="#C9A8F5"></path>
                <path d="M0,5.26128623 L0,0.390426232 C0,0.179392899 0,0.0738728988 0.0692133333,0.0239862321 C0.138426667,-0.0259071012 0.238533333,0.00746623215 0.43874,0.0741995655 L7.05133333,2.2783929 C7.44353333,2.40912623 7.6396,2.4744929 7.6396,2.59461957 C7.6396,2.71474623 7.44353333,2.7801129 7.05133333,2.91084623 L0,5.26128623 Z M4.99600361e-16,5.26128623 L4.99600361e-16,8.59461957 L4.99600361e-16,9.26128623" id="Shape" stroke="#C9A8F5" stroke-width="2" stroke-linecap="round"></path>
            </g>
        </g>
    </g>
</svg>